<svg id="np_chat_812897_000000" xmlns="http://www.w3.org/2000/svg" width="31.321" height="31.988" viewBox="0 0 31.321 31.988">
  <path id="np_chat_812897_000000-2" data-name="np_chat_812897_000000" d="M39.624,22.011a15.659,15.659,0,1,0-26,12.8,11.8,11.8,0,0,1-2.584,3.211.783.783,0,0,0,.51,1.37A13.416,13.416,0,0,0,18.4,37.753a15.474,15.474,0,0,0,8.38.783A15.816,15.816,0,0,0,39.624,22.012ZM23.217,28.9H17.734a.783.783,0,1,1,0-1.565h5.482a.783.783,0,0,1,0,1.565Zm7.048-4.7H17.734a.783.783,0,0,1,0-1.565h12.53a.783.783,0,0,1,0,1.565Zm0-4.7H17.734a.783.783,0,0,1,0-1.565h12.53a.783.783,0,0,1,0,1.565Z" transform="translate(-8.34 -7.412)" fill="#fff"/>
</svg>
