<svg xmlns="http://www.w3.org/2000/svg" width="21.262" height="24.919" viewBox="0 0 21.262 24.919">
  <path id="np_account_4755877_000000" d="M29.465,21.047,28.8,18.116a4.231,4.231,0,0,0-4.18-3.338h-8.83a4.231,4.231,0,0,0-4.18,3.338l-.661,2.931a4.243,4.243,0,0,0,4.179,5.227H25.283a4.246,4.246,0,0,0,4.18-5.227ZM20.21,13.513a4.812,4.812,0,1,0-3.4-1.409A4.8,4.8,0,0,0,20.21,13.513Zm4.3-.516a5.962,5.962,0,0,1-.587.516h.7a5.511,5.511,0,0,1,5.41,4.327l.661,2.931a5.515,5.515,0,0,1-5.409,6.769H15.136a5.509,5.509,0,0,1-5.409-6.769l.661-2.931a5.511,5.511,0,0,1,5.41-4.327h.7A6.216,6.216,0,0,1,15.914,13a6.079,6.079,0,1,1,8.6,0Z" transform="translate(-9.58 -2.621)" fill="#282140"/>
</svg>
